<?xml version="1.0" encoding="UTF-8"?>
<svg version="1.1" xmlns="http://www.w3.org/2000/svg" width="390" height="207">
<path d="M0,0 L390,0 L390,207 L0,207 Z " fill="#CF5D5E" transform="translate(0,0)"/>
<path d="M0,0 L1,0 L1,205 L215,205 L215,206 L388,206 L388,205 L389,205 L389,203 L388,203 L388,202 L387,202 L387,201 L190,201 L190,153 L202,153 L202,152 L205,152 L205,151 L210,151 L210,150 L212,150 L212,149 L213,149 L213,129 L212,129 L212,124 L213,124 L213,123 L216,123 L216,125 L217,125 L217,126 L218,126 L218,127 L219,127 L219,128 L220,128 L220,129 L226,129 L226,128 L228,128 L228,127 L230,127 L230,126 L231,126 L231,125 L234,125 L234,126 L235,126 L235,127 L237,127 L237,128 L238,128 L238,129 L245,129 L245,128 L246,128 L246,127 L247,127 L247,126 L248,126 L248,125 L249,125 L249,124 L250,124 L250,122 L251,122 L251,119 L252,119 L252,100 L251,100 L251,95 L250,95 L250,92 L249,92 L249,90 L248,90 L248,87 L247,87 L247,85 L246,85 L246,83 L245,83 L245,82 L244,82 L244,80 L243,80 L243,78 L242,78 L242,77 L241,77 L241,76 L240,76 L240,75 L239,75 L239,73 L238,73 L238,72 L237,72 L237,71 L236,71 L236,70 L234,70 L234,69 L233,69 L233,68 L232,68 L232,67 L230,67 L230,66 L228,66 L228,65 L226,65 L226,64 L225,64 L225,63 L216,63 L216,64 L215,64 L215,65 L214,65 L214,66 L213,66 L213,67 L212,67 L212,69 L211,69 L211,72 L210,72 L210,76 L209,76 L209,78 L208,78 L208,79 L207,79 L207,80 L206,80 L206,81 L205,81 L205,82 L204,82 L204,83 L203,83 L203,84 L202,84 L202,85 L201,85 L201,86 L198,86 L198,84 L199,84 L199,83 L200,83 L200,82 L202,82 L202,81 L203,81 L203,80 L204,80 L204,79 L205,79 L205,78 L206,78 L206,77 L207,77 L207,75 L208,75 L208,73 L209,73 L209,70 L210,70 L210,62 L209,62 L209,58 L208,58 L208,56 L207,56 L207,55 L206,55 L206,53 L205,53 L205,52 L204,52 L204,51 L203,51 L203,50 L201,50 L201,48 L206,48 L206,47 L208,47 L208,46 L209,46 L209,45 L210,45 L210,44 L211,44 L211,42 L212,42 L212,38 L211,38 L211,36 L210,36 L210,35 L209,35 L209,34 L208,34 L208,33 L206,33 L206,32 L203,32 L203,31 L198,31 L198,30 L192,30 L192,1 L191,1 L191,0 L390,0 L390,207 L0,207 Z " fill="#BEF6F3" transform="translate(0,0)"/>
<path d="M0,0 L3,0 L3,32 L14,32 L14,33 L16,33 L16,34 L18,34 L18,35 L19,35 L19,36 L20,36 L20,39 L19,39 L19,40 L18,40 L18,41 L17,41 L17,42 L14,42 L14,43 L4,43 L4,45 L17,45 L17,46 L13,46 L13,48 L15,48 L15,49 L16,49 L16,50 L17,50 L17,51 L18,51 L18,53 L19,53 L19,54 L20,54 L20,56 L21,56 L21,60 L22,60 L22,68 L21,68 L21,71 L20,71 L20,73 L19,73 L19,75 L18,75 L18,76 L17,76 L17,77 L16,77 L16,78 L15,78 L15,79 L14,79 L14,80 L12,80 L12,81 L11,81 L11,82 L10,82 L10,84 L13,84 L13,83 L14,83 L14,82 L15,82 L15,81 L16,81 L16,80 L17,80 L17,79 L18,79 L18,78 L19,78 L19,77 L20,77 L20,76 L21,76 L21,74 L22,74 L22,70 L23,70 L23,67 L24,67 L24,65 L25,65 L25,64 L26,64 L26,63 L27,63 L27,62 L28,62 L28,61 L37,61 L37,62 L38,62 L38,63 L40,63 L40,64 L42,64 L42,65 L44,65 L44,66 L45,66 L45,67 L46,67 L46,68 L48,68 L48,69 L49,69 L49,70 L50,70 L50,71 L51,71 L51,73 L52,73 L52,74 L53,74 L53,75 L54,75 L54,76 L55,76 L55,78 L56,78 L56,80 L57,80 L57,81 L58,81 L58,83 L59,83 L59,85 L60,85 L60,88 L61,88 L61,90 L62,90 L62,93 L63,93 L63,98 L64,98 L64,117 L63,117 L63,120 L62,120 L62,122 L61,122 L61,123 L60,123 L60,124 L59,124 L59,125 L58,125 L58,126 L57,126 L57,127 L50,127 L50,126 L49,126 L49,125 L47,125 L47,124 L46,124 L46,123 L43,123 L43,124 L42,124 L42,125 L40,125 L40,126 L38,126 L38,127 L32,127 L32,126 L31,126 L31,125 L30,125 L30,124 L29,124 L29,123 L28,123 L28,121 L25,121 L25,122 L24,122 L24,127 L25,127 L25,147 L24,147 L24,148 L22,148 L22,149 L17,149 L17,150 L14,150 L14,151 L2,151 L2,199 L199,199 L199,200 L200,200 L200,201 L201,201 L201,203 L200,203 L200,204 L27,204 L27,203 L-179,203 L-179,202 L-180,202 L-180,198 L-2,198 L-2,151 L-16,151 L-16,150 L-21,150 L-21,149 L-22,149 L-22,147 L-23,147 L-23,146 L-24,146 L-24,139 L-27,139 L-27,140 L-30,140 L-30,141 L-36,141 L-36,140 L-38,140 L-38,139 L-40,139 L-40,138 L-41,138 L-41,137 L-42,137 L-42,136 L-43,136 L-43,135 L-44,135 L-44,133 L-45,133 L-45,132 L-46,132 L-46,121 L-47,121 L-47,120 L-48,120 L-48,116 L-47,116 L-47,114 L-46,114 L-46,113 L-45,113 L-45,111 L-42,111 L-42,112 L-41,112 L-41,113 L-40,113 L-40,115 L-39,115 L-39,116 L-38,116 L-38,119 L-39,119 L-39,120 L-40,120 L-40,121 L-42,121 L-42,122 L-43,122 L-43,131 L-42,131 L-42,133 L-41,133 L-41,134 L-40,134 L-40,135 L-39,135 L-39,136 L-38,136 L-38,137 L-36,137 L-36,138 L-28,138 L-28,137 L-27,137 L-27,136 L-24,136 L-24,135 L-23,135 L-23,120 L-22,120 L-22,114 L-21,114 L-21,108 L-22,108 L-22,107 L-23,107 L-23,106 L-24,106 L-24,105 L-25,105 L-25,104 L-26,104 L-26,103 L-27,103 L-27,101 L-28,101 L-28,100 L-29,100 L-29,98 L-30,98 L-30,96 L-31,96 L-31,92 L-32,92 L-32,90 L-33,90 L-33,88 L-34,88 L-34,86 L-35,86 L-35,84 L-36,84 L-36,82 L-37,82 L-37,80 L-38,80 L-38,78 L-39,78 L-39,76 L-40,76 L-40,74 L-41,74 L-41,72 L-42,72 L-42,70 L-43,70 L-43,68 L-44,68 L-44,67 L-45,67 L-45,63 L-46,63 L-46,61 L-47,61 L-47,59 L-48,59 L-48,57 L-49,57 L-49,56 L-50,56 L-50,53 L-48,53 L-48,52 L-46,52 L-46,51 L-44,51 L-44,50 L-42,50 L-42,49 L-37,49 L-37,51 L-36,51 L-36,53 L-35,53 L-35,56 L-34,56 L-34,58 L-33,58 L-33,60 L-32,60 L-32,63 L-31,63 L-31,65 L-30,65 L-30,67 L-29,67 L-29,70 L-28,70 L-28,72 L-27,72 L-27,75 L-26,75 L-26,77 L-25,77 L-25,79 L-24,79 L-24,82 L-23,82 L-23,85 L-22,85 L-22,86 L-21,86 L-21,87 L-20,87 L-20,89 L-19,89 L-19,90 L-18,90 L-18,92 L-17,92 L-17,94 L-16,94 L-16,93 L-15,93 L-15,90 L-14,90 L-14,88 L-13,88 L-13,86 L-12,86 L-12,84 L-11,84 L-11,81 L-13,81 L-13,80 L-14,80 L-14,79 L-15,79 L-15,78 L-16,78 L-16,76 L-17,76 L-17,75 L-18,75 L-18,73 L-19,73 L-19,71 L-20,71 L-20,59 L-19,59 L-19,55 L-18,55 L-18,54 L-17,54 L-17,52 L-16,52 L-16,51 L-15,51 L-15,50 L-14,50 L-14,49 L-13,49 L-13,46 L-14,46 L-14,45 L-15,45 L-15,43 L-16,43 L-16,35 L-15,35 L-15,33 L-14,33 L-14,32 L-13,32 L-13,30 L-12,30 L-12,29 L-11,29 L-11,28 L-10,28 L-10,27 L-8,27 L-8,26 L-5,26 L-5,30 L-6,30 L-6,38 L-5,38 L-5,39 L-4,39 L-4,41 L-3,41 L-3,42 L-2,42 L-2,43 L-1,43 L-1,24 L0,24 Z " fill="#120C0C" transform="translate(188,2)"/>
<path d="M0,0 L180,0 L180,1 L377,1 L377,4 L0,4 Z " fill="#090505" transform="translate(9,201)"/>
<path d="M0,0 L7,0 L7,1 L9,1 L9,2 L11,2 L11,3 L13,3 L13,4 L14,4 L14,5 L15,5 L15,6 L17,6 L17,7 L18,7 L18,8 L19,8 L19,10 L20,10 L20,11 L21,11 L21,12 L22,12 L22,13 L23,13 L23,15 L24,15 L24,17 L25,17 L25,18 L26,18 L26,20 L27,20 L27,22 L28,22 L28,25 L29,25 L29,28 L30,28 L30,31 L31,31 L31,35 L32,35 L32,50 L31,50 L31,52 L30,52 L30,55 L29,55 L29,56 L28,56 L28,57 L27,57 L27,58 L22,58 L22,57 L20,57 L20,56 L19,56 L19,55 L18,55 L18,54 L17,54 L17,53 L14,53 L14,54 L13,54 L13,55 L12,55 L12,56 L11,56 L11,57 L9,57 L9,58 L4,58 L4,57 L3,57 L3,56 L2,56 L2,54 L1,54 L1,52 L0,52 L0,51 L-3,51 L-3,52 L-4,52 L-4,53 L-6,53 L-6,50 L-7,50 L-7,48 L-8,48 L-8,43 L-7,43 L-7,42 L-4,42 L-4,41 L-1,41 L-1,40 L1,40 L1,39 L3,39 L3,38 L5,38 L5,39 L6,39 L6,41 L7,41 L7,42 L10,42 L10,41 L11,41 L11,40 L13,40 L13,39 L15,39 L15,38 L17,38 L17,37 L19,37 L19,36 L21,36 L21,35 L23,35 L23,30 L22,30 L22,28 L21,28 L21,27 L20,27 L20,25 L19,25 L19,23 L18,23 L18,21 L17,21 L17,19 L16,19 L16,17 L15,17 L15,15 L14,15 L14,14 L13,14 L13,12 L12,12 L12,10 L11,10 L11,8 L10,8 L10,7 L5,7 L5,8 L3,8 L3,9 L1,9 L1,10 L0,10 L0,11 L-2,11 L-2,12 L-3,12 L-3,13 L-5,13 L-5,14 L-6,14 L-6,12 L-5,12 L-5,10 L-4,10 L-4,8 L-3,8 L-3,6 L-2,6 L-2,2 L-1,2 L-1,1 L0,1 Z " fill="#D7EBED" transform="translate(217,67)"/>
<path d="M0,0 L5,0 L5,1 L6,1 L6,3 L7,3 L7,5 L8,5 L8,7 L9,7 L9,8 L10,8 L10,10 L11,10 L11,12 L12,12 L12,14 L13,14 L13,16 L14,16 L14,18 L15,18 L15,20 L16,20 L16,21 L17,21 L17,23 L18,23 L18,28 L16,28 L16,29 L14,29 L14,30 L12,30 L12,31 L10,31 L10,32 L8,32 L8,33 L6,33 L6,34 L5,34 L5,35 L2,35 L2,34 L1,34 L1,32 L0,32 L0,31 L-2,31 L-2,32 L-4,32 L-4,33 L-6,33 L-6,34 L-9,34 L-9,35 L-12,35 L-12,36 L-13,36 L-13,40 L-14,40 L-14,35 L-15,35 L-15,31 L-16,31 L-16,28 L-14,28 L-14,27 L-13,27 L-13,24 L-12,24 L-12,23 L-11,23 L-11,22 L-13,22 L-13,23 L-15,23 L-15,24 L-16,24 L-16,25 L-18,25 L-18,22 L-19,22 L-19,20 L-20,20 L-20,18 L-21,18 L-21,15 L-19,15 L-19,14 L-18,14 L-18,13 L-17,13 L-17,12 L-16,12 L-16,11 L-15,11 L-15,10 L-14,10 L-14,9 L-13,9 L-13,8 L-12,8 L-12,7 L-10,7 L-10,6 L-8,6 L-8,5 L-7,5 L-7,4 L-5,4 L-5,3 L-4,3 L-4,2 L-2,2 L-2,1 L0,1 Z " fill="#111110" transform="translate(222,74)"/>
<path d="M0,0 L3,0 L3,1 L5,1 L5,63 L-4,63 L-4,62 L-11,62 L-11,61 L-12,61 L-12,42 L-11,42 L-11,35 L-10,35 L-10,29 L-9,29 L-9,25 L-8,25 L-8,20 L-7,20 L-7,17 L-6,17 L-6,14 L-5,14 L-5,11 L-4,11 L-4,9 L-3,9 L-3,6 L-2,6 L-2,4 L-1,4 L-1,2 L0,2 Z " fill="#9C473D" transform="translate(181,86)"/>
<path d="M0,0 L3,0 L3,1 L4,1 L4,3 L5,3 L5,5 L6,5 L6,7 L7,7 L7,9 L8,9 L8,12 L9,12 L9,14 L10,14 L10,17 L11,17 L11,20 L12,20 L12,24 L13,24 L13,26 L14,26 L14,29 L15,29 L15,33 L16,33 L16,39 L17,39 L17,45 L18,45 L18,59 L15,59 L15,60 L9,60 L9,61 L4,61 L4,62 L0,62 Z " fill="#8FD4F2" transform="translate(191,87)"/>
<path d="M0,0 L9,0 L9,1 L10,1 L10,2 L12,2 L12,3 L14,3 L14,4 L16,4 L16,5 L17,5 L17,6 L18,6 L18,7 L20,7 L20,8 L21,8 L21,9 L22,9 L22,10 L23,10 L23,12 L24,12 L24,13 L25,13 L25,14 L26,14 L26,15 L27,15 L27,17 L28,17 L28,19 L29,19 L29,20 L30,20 L30,22 L31,22 L31,24 L32,24 L32,27 L33,27 L33,29 L34,29 L34,32 L35,32 L35,37 L36,37 L36,56 L35,56 L35,59 L34,59 L34,61 L33,61 L33,62 L32,62 L32,63 L31,63 L31,64 L30,64 L30,65 L29,65 L29,66 L22,66 L22,65 L21,65 L21,64 L19,64 L19,63 L18,63 L18,62 L15,62 L15,63 L14,63 L14,64 L12,64 L12,65 L10,65 L10,66 L4,66 L4,65 L3,65 L3,64 L2,64 L2,63 L1,63 L1,62 L0,62 L0,60 L-3,60 L-3,61 L-4,61 L-4,63 L-5,63 L-5,58 L-6,58 L-6,54 L-5,54 L-5,57 L-3,57 L-3,56 L-2,56 L-2,55 L1,55 L1,56 L2,56 L2,58 L3,58 L3,60 L4,60 L4,61 L5,61 L5,62 L10,62 L10,61 L12,61 L12,60 L13,60 L13,59 L14,59 L14,58 L15,58 L15,57 L18,57 L18,58 L19,58 L19,59 L20,59 L20,60 L21,60 L21,61 L23,61 L23,62 L28,62 L28,61 L29,61 L29,60 L30,60 L30,59 L31,59 L31,56 L32,56 L32,54 L33,54 L33,39 L32,39 L32,35 L31,35 L31,32 L30,32 L30,29 L29,29 L29,26 L28,26 L28,24 L27,24 L27,22 L26,22 L26,21 L25,21 L25,19 L24,19 L24,17 L23,17 L23,16 L22,16 L22,15 L21,15 L21,14 L20,14 L20,12 L19,12 L19,11 L18,11 L18,10 L16,10 L16,9 L15,9 L15,8 L14,8 L14,7 L12,7 L12,6 L10,6 L10,5 L8,5 L8,4 L1,4 L1,5 L0,5 L0,6 L-1,6 L-1,10 L-2,10 L-2,12 L-3,12 L-3,14 L-4,14 L-4,16 L-5,16 L-5,18 L-6,18 L-6,19 L-7,19 L-7,20 L-8,20 L-8,21 L-9,21 L-9,22 L-10,22 L-10,23 L-11,23 L-11,24 L-12,24 L-12,25 L-13,25 L-13,26 L-15,26 L-15,25 L-18,25 L-18,23 L-15,23 L-15,22 L-14,22 L-14,21 L-13,21 L-13,20 L-12,20 L-12,19 L-11,19 L-11,18 L-10,18 L-10,17 L-9,17 L-9,16 L-8,16 L-8,15 L-7,15 L-7,13 L-6,13 L-6,9 L-5,9 L-5,6 L-4,6 L-4,4 L-3,4 L-3,3 L-2,3 L-2,2 L-1,2 L-1,1 L0,1 Z " fill="#1A2020" transform="translate(216,63)"/>
<path d="M0,0 L5,0 L5,2 L6,2 L6,4 L7,4 L7,7 L8,7 L8,9 L9,9 L9,11 L10,11 L10,14 L11,14 L11,16 L12,16 L12,18 L13,18 L13,21 L14,21 L14,23 L15,23 L15,26 L16,26 L16,28 L17,28 L17,30 L18,30 L18,33 L19,33 L19,36 L15,36 L15,37 L14,37 L14,38 L13,38 L13,39 L10,39 L10,37 L7,37 L7,35 L6,35 L6,33 L5,33 L5,31 L4,31 L4,29 L3,29 L3,27 L2,27 L2,25 L1,25 L1,23 L0,23 L0,21 L-1,21 L-1,19 L-2,19 L-2,18 L-3,18 L-3,14 L-4,14 L-4,12 L-5,12 L-5,10 L-6,10 L-6,8 L-7,8 L-7,7 L-8,7 L-8,4 L-6,4 L-6,3 L-4,3 L-4,2 L-2,2 L-2,1 L0,1 Z " fill="#2F2311" transform="translate(146,51)"/>
<path d="M0,0 L5,0 L5,1 L6,1 L6,3 L7,3 L7,5 L8,5 L8,7 L9,7 L9,8 L10,8 L10,10 L11,10 L11,12 L12,12 L12,14 L13,14 L13,16 L14,16 L14,18 L15,18 L15,20 L16,20 L16,21 L17,21 L17,23 L18,23 L18,28 L16,28 L16,29 L14,29 L14,30 L12,30 L12,31 L10,31 L10,32 L8,32 L8,33 L6,33 L6,34 L5,34 L5,35 L2,35 L2,34 L1,34 L1,32 L0,32 L0,31 L-4,31 L-4,30 L-3,30 L-3,29 L-2,29 L-2,28 L-1,28 L-1,27 L0,27 L0,26 L1,26 L1,25 L2,25 L2,24 L3,24 L3,23 L4,23 L4,26 L3,26 L3,29 L6,29 L6,28 L8,28 L8,27 L10,27 L10,26 L12,26 L12,25 L13,25 L13,24 L12,24 L12,22 L11,22 L11,20 L10,20 L10,18 L9,18 L9,16 L8,16 L8,14 L7,14 L7,13 L6,13 L6,11 L5,11 L5,9 L4,9 L4,7 L3,7 L3,5 L0,5 L0,6 L-1,6 L-1,7 L-3,7 L-3,8 L-5,8 L-5,9 L-6,9 L-6,12 L-5,12 L-5,16 L-9,16 L-9,14 L-10,14 L-10,11 L-11,11 L-11,7 L-10,7 L-10,6 L-8,6 L-8,5 L-7,5 L-7,4 L-5,4 L-5,3 L-4,3 L-4,2 L-2,2 L-2,1 L0,1 Z " fill="#121515" transform="translate(222,74)"/>
<path d="M0,0 L3,0 L3,1 L4,1 L4,2 L6,2 L6,3 L8,3 L8,4 L9,4 L9,5 L10,5 L10,6 L11,6 L11,7 L12,7 L12,9 L13,9 L13,10 L14,10 L14,22 L13,22 L13,23 L12,23 L12,24 L11,24 L11,26 L10,26 L10,27 L9,27 L9,28 L7,28 L7,29 L5,29 L5,30 L4,30 L4,31 L2,31 L2,32 L0,32 L0,26 L4,26 L4,25 L5,25 L5,24 L7,24 L7,23 L9,23 L9,21 L8,21 L8,20 L6,20 L6,21 L5,21 L5,22 L4,22 L4,23 L3,23 L3,24 L0,24 Z " fill="#E8DACB" transform="translate(191,50)"/>
<path d="M0,0 L101,0 L101,1 L102,1 L102,2 L103,2 L103,4 L102,4 L102,5 L-71,5 L-71,4 L100,4 L100,1 L0,1 Z " fill="#586161" transform="translate(286,201)"/>
<path d="M0,0 L5,0 L5,10 L2,10 L2,9 L0,9 L0,8 L-3,8 L-3,10 L-2,10 L-2,11 L0,11 L0,12 L-3,12 L-3,13 L-4,13 L-4,15 L-3,15 L-3,16 L-2,16 L-2,18 L-1,18 L-1,20 L-2,20 L-2,24 L0,24 L0,25 L1,25 L1,26 L5,26 L5,32 L3,32 L3,31 L0,31 L0,30 L-2,30 L-2,29 L-3,29 L-3,28 L-4,28 L-4,27 L-5,27 L-5,26 L-6,26 L-6,25 L-7,25 L-7,24 L-8,24 L-8,21 L-9,21 L-9,9 L-8,9 L-8,7 L-7,7 L-7,5 L-6,5 L-6,4 L-5,4 L-5,3 L-4,3 L-4,2 L-2,2 L-2,1 L0,1 Z " fill="#9A242A" transform="translate(182,51)"/>
<path d="M0,0 L3,0 L3,2 L1,2 L1,3 L0,3 L0,5 L2,5 L2,4 L3,4 L3,3 L5,3 L5,6 L3,6 L3,7 L2,7 L2,9 L4,9 L4,8 L5,8 L5,7 L6,7 L6,9 L5,9 L5,10 L4,10 L4,12 L5,12 L5,11 L8,11 L8,13 L6,13 L6,14 L5,14 L5,15 L8,15 L8,14 L9,14 L9,16 L8,16 L8,17 L7,17 L7,18 L11,18 L11,20 L9,20 L9,22 L11,22 L11,21 L12,21 L12,24 L11,24 L11,25 L14,25 L14,27 L15,27 L15,29 L16,29 L16,32 L14,32 L14,33 L13,33 L13,34 L12,34 L12,35 L11,35 L11,34 L10,34 L10,32 L9,32 L9,30 L8,30 L8,28 L7,28 L7,26 L6,26 L6,24 L5,24 L5,22 L4,22 L4,20 L3,20 L3,18 L2,18 L2,16 L1,16 L1,14 L0,14 L0,11 L-1,11 L-1,9 L-2,9 L-2,7 L-3,7 L-3,5 L-4,5 L-4,2 L-2,2 L-2,1 L0,1 Z " fill="#E1D341" transform="translate(146,54)"/>
<path d="M0,0 L3,0 L3,1 L4,1 L4,30 L10,30 L10,31 L15,31 L15,32 L18,32 L18,33 L20,33 L20,34 L21,34 L21,35 L22,35 L22,36 L23,36 L23,38 L24,38 L24,42 L23,42 L23,44 L22,44 L22,45 L21,45 L21,46 L20,46 L20,47 L18,47 L18,48 L17,48 L17,47 L4,47 L4,45 L14,45 L14,44 L17,44 L17,43 L18,43 L18,42 L19,42 L19,41 L20,41 L20,38 L19,38 L19,37 L18,37 L18,36 L16,36 L16,35 L14,35 L14,34 L3,34 L3,2 L0,2 L0,26 L-1,26 L-1,1 L0,1 Z " fill="#34332B" transform="translate(188,0)"/>
<path d="M0,0 L3,0 L3,1 L4,1 L4,2 L5,2 L5,4 L6,4 L6,5 L7,5 L7,8 L6,8 L6,9 L5,9 L5,10 L3,10 L3,11 L2,11 L2,20 L3,20 L3,22 L4,22 L4,23 L5,23 L5,24 L6,24 L6,25 L7,25 L7,26 L9,26 L9,27 L17,27 L17,26 L18,26 L18,25 L20,25 L20,26 L19,26 L19,27 L22,27 L22,35 L21,35 L21,28 L18,28 L18,29 L15,29 L15,30 L9,30 L9,29 L7,29 L7,28 L5,28 L5,27 L4,27 L4,26 L3,26 L3,25 L2,25 L2,24 L1,24 L1,22 L0,22 L0,21 L-1,21 L-1,10 L-2,10 L-2,9 L-3,9 L-3,5 L-2,5 L-2,3 L-1,3 L-1,2 L0,2 Z " fill="#210F0F" transform="translate(143,113)"/>
<path d="M0,0 L3,0 L3,2 L4,2 L4,4 L5,4 L5,6 L6,6 L6,8 L7,8 L7,9 L8,9 L8,11 L9,11 L9,13 L10,13 L10,15 L11,15 L11,17 L12,17 L12,19 L13,19 L13,20 L12,20 L12,21 L10,21 L10,22 L8,22 L8,23 L6,23 L6,24 L3,24 L3,21 L4,21 L4,19 L5,19 L5,17 L6,17 L6,9 L5,9 L5,8 L-1,8 L-1,9 L-2,9 L-2,10 L-4,10 L-4,9 L-5,9 L-5,7 L-6,7 L-6,4 L-5,4 L-5,3 L-3,3 L-3,2 L-1,2 L-1,1 L0,1 Z " fill="#AFD1D9" transform="translate(222,79)"/>
<path d="M0,0 L1,0 L1,4 L2,4 L2,7 L3,7 L3,10 L4,10 L4,12 L3,12 L3,13 L1,13 L1,14 L0,14 L0,15 L-1,15 L-1,16 L-3,16 L-3,17 L-4,17 L-4,18 L-6,18 L-6,15 L-7,15 L-7,13 L-8,13 L-8,11 L-9,11 L-9,8 L-7,8 L-7,7 L-6,7 L-6,6 L-5,6 L-5,5 L-4,5 L-4,4 L-3,4 L-3,3 L-2,3 L-2,2 L-1,2 L-1,1 L0,1 Z " fill="#D0E3E5" transform="translate(210,81)"/>
<path d="M0,0 L3,0 L3,3 L2,3 L2,5 L1,5 L1,7 L0,7 L0,8 L-1,8 L-1,9 L-2,9 L-2,10 L-3,10 L-3,11 L-4,11 L-4,12 L-6,12 L-6,13 L-8,13 L-8,14 L-11,14 L-11,15 L-15,15 L-15,14 L-16,14 L-16,11 L-14,11 L-14,10 L-13,10 L-13,9 L-11,9 L-11,8 L-10,8 L-10,7 L-9,7 L-9,6 L-7,6 L-7,5 L-6,5 L-6,4 L-4,4 L-4,3 L-3,3 L-3,2 L-2,2 L-2,1 L0,1 Z " fill="#E6D8CA" transform="translate(222,91)"/>
<path d="M0,0 L3,0 L3,1 L5,1 L5,2 L8,2 L8,16 L6,16 L6,15 L4,15 L4,14 L3,14 L3,13 L1,13 L1,12 L2,12 L2,10 L1,10 L1,8 L0,8 L0,7 L-1,7 L-1,5 L0,5 L0,4 L3,4 L3,3 L1,3 L1,2 L0,2 Z " fill="#811E23" transform="translate(179,59)"/>
<path d="M0,0 L1,0 L1,3 L3,3 L3,2 L4,2 L4,1 L7,1 L7,2 L8,2 L8,4 L9,4 L9,6 L10,6 L10,7 L11,7 L11,8 L16,8 L16,7 L18,7 L18,6 L19,6 L19,5 L20,5 L20,4 L21,4 L21,3 L24,3 L24,4 L22,4 L22,5 L21,5 L21,6 L20,6 L20,7 L19,7 L19,8 L18,8 L18,11 L16,11 L16,12 L10,12 L10,11 L9,11 L9,10 L8,10 L8,9 L7,9 L7,8 L6,8 L6,6 L3,6 L3,7 L2,7 L2,9 L1,9 L1,4 L0,4 Z " fill="#1B2020" transform="translate(210,117)"/>
<path d="M0,0 L6,0 L6,1 L10,1 L10,2 L13,2 L13,3 L14,3 L14,6 L12,6 L12,7 L11,7 L11,8 L0,8 Z " fill="#B3EAE7" transform="translate(192,35)"/>
<path d="M0,0 L3,0 L3,1 L4,1 L4,3 L5,3 L5,4 L6,4 L6,6 L7,6 L7,8 L8,8 L8,10 L9,10 L9,14 L8,14 L8,17 L6,17 L6,15 L5,15 L5,14 L4,14 L4,13 L3,13 L3,11 L2,11 L2,10 L1,10 L1,8 L0,8 L0,5 L-1,5 L-1,1 L0,1 Z " fill="#962329" transform="translate(161,90)"/>
<path d="M0,0 L2,0 L2,1 L3,1 L3,3 L2,3 L2,4 L-75,4 L-75,3 L0,3 Z " fill="#353535" transform="translate(386,202)"/>
<path d="M0,0 L2,0 L2,3 L3,3 L3,8 L4,8 L4,27 L1,27 L1,10 L0,10 L0,6 L-1,6 L-1,2 L0,2 Z " fill="#131818" transform="translate(248,92)"/>
<path d="M0,0 L8,0 L8,1 L12,1 L12,2 L14,2 L14,3 L16,3 L16,4 L17,4 L17,6 L18,6 L18,10 L17,10 L17,12 L16,12 L16,13 L14,13 L14,14 L11,14 L11,15 L0,15 L0,13 L10,13 L10,12 L13,12 L13,11 L14,11 L14,10 L15,10 L15,9 L16,9 L16,6 L15,6 L15,5 L14,5 L14,4 L12,4 L12,3 L10,3 L10,2 L0,2 Z " fill="#DEDE4C" transform="translate(192,32)"/>
<path d="M0,0 L1,0 L1,1 L2,1 L2,0 L3,0 L3,4 L2,4 L2,3 L1,3 L1,4 L0,4 L0,5 L-1,5 L-1,6 L-2,6 L-2,7 L-3,7 L-3,8 L-4,8 L-4,9 L-5,9 L-5,10 L-6,10 L-6,11 L-4,11 L-4,12 L-6,12 L-6,13 L-8,13 L-8,14 L-11,14 L-11,15 L-14,15 L-14,16 L-15,16 L-15,20 L-16,20 L-16,15 L-17,15 L-17,12 L-13,12 L-13,11 L-10,11 L-10,10 L-8,10 L-8,9 L-6,9 L-6,8 L-5,8 L-5,7 L-4,7 L-4,6 L-3,6 L-3,5 L-2,5 L-2,4 L-1,4 L-1,2 L0,2 Z " fill="#1C1C1B" transform="translate(224,94)"/>
<path d="M0,0 L3,0 L3,2 L4,2 L4,4 L5,4 L5,7 L1,7 L1,8 L-1,8 L-1,9 L-2,9 L-2,10 L-4,10 L-4,9 L-5,9 L-5,7 L-6,7 L-6,4 L-5,4 L-5,3 L-3,3 L-3,2 L-1,2 L-1,1 L0,1 Z " fill="#BADFE7" transform="translate(222,79)"/>
<path d="M0,0 L3,0 L3,1 L1,1 L1,17 L2,17 L2,15 L3,15 L3,14 L6,14 L6,15 L7,15 L7,18 L6,18 L6,19 L5,19 L5,20 L6,20 L6,21 L5,21 L5,22 L4,22 L4,23 L3,23 L3,24 L0,24 Z " fill="#AAA095" transform="translate(191,50)"/>
<path d="M0,0 L1,0 L1,4 L0,4 L0,6 L-1,6 L-1,8 L-2,8 L-2,9 L-3,9 L-3,10 L-4,10 L-4,11 L-5,11 L-5,12 L-6,12 L-6,13 L-7,13 L-7,14 L-8,14 L-8,15 L-9,15 L-9,16 L-11,16 L-11,15 L-14,15 L-14,13 L-11,13 L-11,12 L-10,12 L-10,11 L-9,11 L-9,10 L-8,10 L-8,9 L-7,9 L-7,8 L-6,8 L-6,7 L-5,7 L-5,6 L-4,6 L-4,5 L-3,5 L-3,3 L-2,3 L-2,1 L0,1 Z " fill="#171D1C" transform="translate(212,73)"/>
<path d="M0,0 L3,0 L3,1 L4,1 L4,2 L5,2 L5,4 L6,4 L6,5 L7,5 L7,8 L6,8 L6,9 L5,9 L5,10 L3,10 L3,11 L2,11 L2,14 L1,14 L1,19 L0,19 L0,12 L1,12 L1,9 L0,9 L0,8 L3,8 L3,7 L4,7 L4,5 L3,5 L3,4 L1,4 L1,5 L0,5 L0,6 L-1,6 L-1,8 L-2,8 L-2,3 L-1,3 L-1,2 L0,2 Z " fill="#150808" transform="translate(143,113)"/>
<path d="M0,0 L2,0 L2,1 L4,1 L4,2 L6,2 L6,3 L7,3 L7,4 L8,4 L8,7 L7,7 L7,8 L6,8 L6,9 L5,9 L5,10 L2,10 L2,11 L-8,11 L-8,13 L-9,13 L-9,1 L-8,1 L-8,9 L3,9 L3,8 L4,8 L4,7 L6,7 L6,4 L5,4 L5,3 L2,3 L2,2 L-2,2 L-2,1 L0,1 Z " fill="#353E2D" transform="translate(200,34)"/>
<path d="M0,0 L1,0 L1,1 L3,1 L3,4 L4,4 L4,6 L5,6 L5,8 L6,8 L6,11 L7,11 L7,14 L3,14 L3,15 L2,15 L2,16 L1,16 L1,17 L-2,17 L-2,15 L-1,15 L-1,16 L0,16 L0,15 L1,15 L1,14 L2,14 L2,13 L4,13 L4,10 L3,10 L3,8 L2,8 L2,6 L-1,6 L-1,5 L0,5 Z " fill="#2A1E0F" transform="translate(158,73)"/>
<path d="M0,0 L1,0 L1,6 L0,6 L0,8 L-1,8 L-1,9 L-2,9 L-2,10 L-3,10 L-3,11 L-4,11 L-4,12 L-5,12 L-5,13 L-6,13 L-6,14 L-7,14 L-7,15 L-8,15 L-8,16 L-11,16 L-11,14 L-10,14 L-10,13 L-9,13 L-9,12 L-7,12 L-7,11 L-6,11 L-6,10 L-5,10 L-5,9 L-4,9 L-4,8 L-3,8 L-3,7 L-2,7 L-2,5 L-1,5 L-1,3 L0,3 Z " fill="#A5D8D6" transform="translate(209,70)"/>
<path d="M0,0 L1,0 L1,4 L2,4 L2,6 L3,6 L3,7 L4,7 L4,9 L5,9 L5,11 L1,11 L1,10 L0,10 L0,9 L-1,9 L-1,8 L-2,8 L-2,3 L-1,3 L-1,1 L0,1 Z " fill="#81242A" transform="translate(177,36)"/>
<path d="M0,0 L2,0 L2,1 L3,1 L3,3 L2,3 L2,4 L-1,4 L-1,5 L0,5 L0,8 L-1,8 L-1,17 L-2,17 L-2,6 L-3,6 L-3,5 L-4,5 L-4,1 L-3,1 L-3,4 L-2,4 L-2,2 L-1,2 L-1,1 L0,1 Z " fill="#5B1E20" transform="translate(144,117)"/>
<path d="M0,0 L2,0 L2,1 L1,1 L1,2 L4,2 L4,10 L3,10 L3,3 L0,3 L0,4 L-3,4 L-3,5 L-9,5 L-9,4 L-4,4 L-4,3 L-7,3 L-7,2 L-1,2 L-1,1 L0,1 Z " fill="#482020" transform="translate(161,138)"/>
<path d="M0,0 L8,0 L8,1 L12,1 L12,2 L14,2 L14,3 L16,3 L16,4 L17,4 L17,5 L16,5 L16,6 L15,6 L15,5 L14,5 L14,4 L12,4 L12,3 L10,3 L10,2 L0,2 Z " fill="#B4B53E" transform="translate(192,32)"/>
<path d="M0,0 L2,0 L2,1 L6,1 L6,2 L7,2 L7,3 L6,3 L6,5 L4,5 L4,6 L1,6 L1,4 L0,4 L0,3 L-1,3 L-1,1 L0,1 Z " fill="#160506" transform="translate(179,63)"/>
<path d="M0,0 L1,0 L1,1 L2,1 L2,2 L1,2 L1,3 L-1,3 L-1,4 L-2,4 L-2,6 L-3,6 L-3,7 L-4,7 L-4,8 L-5,8 L-5,9 L-4,9 L-4,10 L-5,10 L-5,11 L-6,11 L-6,12 L-8,12 L-8,10 L-7,10 L-7,9 L-6,9 L-6,8 L-7,8 L-7,7 L-6,7 L-6,6 L-4,6 L-4,5 L-3,5 L-3,3 L-4,3 L-4,2 L0,2 Z " fill="#2C3030" transform="translate(217,88)"/>
<path d="M0,0 L3,0 L3,1 L4,1 L4,2 L5,2 L5,3 L4,3 L4,4 L1,4 L1,5 L0,5 L0,6 L-1,6 L-1,8 L-2,8 L-2,3 L-1,3 L-1,2 L0,2 Z " fill="#1E0C0C" transform="translate(143,113)"/>
<path d="M0,0 L5,0 L5,8 L4,8 L4,6 L3,6 L3,7 L2,7 L2,2 L-1,2 L-1,1 L0,1 Z " fill="#0D0F0F" transform="translate(223,88)"/>
<path d="M0,0 L3,0 L3,4 L2,4 L2,1 L1,1 L1,2 L0,2 L0,3 L-1,3 L-1,4 L-2,4 L-2,5 L-3,5 L-3,6 L-4,6 L-4,7 L-5,7 L-5,8 L-6,8 L-6,9 L-7,9 L-7,7 L-6,7 L-6,6 L-5,6 L-5,4 L-4,4 L-4,3 L-3,3 L-3,2 L-2,2 L-2,1 L0,1 Z " fill="#281212" transform="translate(180,28)"/>
<path d="M0,0 L1,0 L1,3 L3,3 L3,2 L4,2 L4,1 L7,1 L7,2 L5,2 L5,3 L4,3 L4,4 L3,4 L3,5 L6,5 L6,6 L3,6 L3,7 L2,7 L2,9 L1,9 L1,4 L0,4 Z " fill="#282D2E" transform="translate(210,117)"/>
<path d="M0,0 L1,0 L1,2 L3,2 L3,5 L2,5 L2,7 L1,7 L1,5 L0,5 L0,6 L-1,6 L-1,7 L-2,7 L-2,8 L-4,8 L-4,7 L-3,7 L-3,6 L-2,6 L-2,5 L-1,5 L-1,2 L0,2 Z " fill="#252A2A" transform="translate(248,117)"/>
<path d="M0,0 L2,0 L2,1 L1,1 L1,2 L0,2 L0,5 L-1,5 L-1,6 L-3,6 L-3,8 L-4,8 L-4,4 L-5,4 L-5,3 L-3,3 L-3,2 L-2,2 L-2,1 L0,1 Z " fill="#1C1C1B" transform="translate(209,96)"/>
<path d="M0,0 L1,0 L1,3 L3,3 L3,5 L4,5 L4,10 L3,10 L3,9 L2,9 L2,7 L1,7 L1,5 L0,5 L0,3 L-1,3 L-1,1 L0,1 Z " fill="#201A0A" transform="translate(140,56)"/>
<path d="M0,0 L1,0 L1,6 L0,6 L0,8 L-1,8 L-1,9 L-2,9 L-2,10 L-5,10 L-5,9 L-4,9 L-4,8 L-3,8 L-3,7 L-2,7 L-2,5 L-1,5 L-1,3 L0,3 Z " fill="#95C3C1" transform="translate(209,70)"/>
<path d="M0,0 L1,0 L1,1 L2,1 L2,5 L1,5 L1,7 L0,7 L0,8 L-2,8 L-2,9 L-3,9 L-3,6 L-2,6 L-2,5 L-1,5 L-1,4 L0,4 Z " fill="#D4D449" transform="translate(208,37)"/>
<path d="M0,0 L1,0 L1,3 L0,3 L0,4 L-1,4 L-1,5 L-2,5 L-2,6 L-3,6 L-3,7 L-5,7 L-5,8 L-7,8 L-7,7 L-6,7 L-6,6 L-5,6 L-5,5 L-4,5 L-4,4 L-3,4 L-3,3 L-2,3 L-2,2 L-1,2 L-1,1 L0,1 Z " fill="#070808" transform="translate(225,97)"/>
<path d="M0,0 L1,0 L1,1 L2,1 L2,0 L3,0 L3,4 L2,4 L2,3 L1,3 L1,4 L0,4 L0,5 L-1,5 L-1,6 L-2,6 L-2,7 L-3,7 L-3,8 L-5,8 L-5,7 L-4,7 L-4,6 L-3,6 L-3,5 L-2,5 L-2,4 L-1,4 L-1,2 L0,2 Z " fill="#2C2A28" transform="translate(224,94)"/>
<path d="M0,0 L1,0 L1,4 L0,4 L0,6 L-3,6 L-3,7 L-5,7 L-5,6 L-4,6 L-4,5 L-3,5 L-3,3 L-2,3 L-2,1 L0,1 Z " fill="#0F1313" transform="translate(212,73)"/>
<path d="M0,0 L2,0 L2,1 L3,1 L3,3 L1,3 L1,4 L-1,4 L-1,5 L-2,5 L-2,6 L-4,6 L-4,4 L-3,4 L-3,3 L-2,3 L-2,2 L-1,2 L-1,1 L0,1 Z " fill="#373431" transform="translate(197,70)"/>
<path d="M0,0 L5,0 L5,1 L4,1 L4,3 L3,3 L3,4 L2,4 L2,8 L1,8 L1,3 L0,3 Z " fill="#282928" transform="translate(207,106)"/>
<path d="M0,0 L2,0 L2,1 L3,1 L3,2 L5,2 L5,3 L7,3 L7,5 L3,5 L3,4 L2,4 L2,3 L0,3 Z " fill="#1C0607" transform="translate(180,72)"/>
<path d="M0,0 L3,0 L3,1 L4,1 L4,4 L-1,4 L-1,1 L0,1 Z " fill="#363330" transform="translate(194,64)"/>
<path d="M0,0 L6,0 L6,1 L2,1 L2,2 L1,2 L1,3 L4,3 L4,4 L1,4 L1,5 L-1,5 L-1,3 L0,3 L0,2 L-1,2 L-1,1 L0,1 Z " fill="#2B2F2F" transform="translate(221,87)"/>
<path d="M0,0 L3,0 L3,1 L5,1 L5,2 L7,2 L7,4 L4,4 L4,3 L1,3 L1,2 L0,2 Z " fill="#1D0608" transform="translate(179,59)"/>
</svg>
