<?xml version="1.0" standalone="no"?>
<!DOCTYPE svg PUBLIC "-//W3C//DTD SVG 20010904//EN"
 "http://www.w3.org/TR/2001/REC-SVG-20010904/DTD/svg10.dtd">
<svg version="1.0" xmlns="http://www.w3.org/2000/svg"
 width="1024.000000pt" height="1024.000000pt" viewBox="0 0 1024.000000 1024.000000"
 preserveAspectRatio="xMidYMid meet" background-color="#FFFFFF">

<g transform="translate(0.000000,1024.000000) scale(0.100000,-0.100000)"
fill="#000000" stroke="none">
<path d="M2563 8885 c-377 -49 -697 -234 -925 -532 -134 -176 -207 -319 -264
-516 -68 -237 -65 -91 -61 -2772 l3 -2420 21 -96 c67 -305 207 -563 418 -774
205 -205 427 -325 720 -392 76 -17 203 -18 2630 -18 2815 0 2598 -5 2800 61
508 164 898 613 1002 1155 17 89 18 227 18 2544 0 2351 -1 2454 -19 2550 -113
606 -549 1057 -1158 1198 l-93 21 -2495 2 c-2020 2 -2514 -1 -2597 -11z m5112
-234 c191 -38 366 -115 514 -226 247 -186 399 -419 479 -733 l27 -107 0 -2450
0 -2450 -22 -97 c-102 -446 -418 -803 -828 -931 -193 -60 -36 -57 -2729 -57
-1540 0 -2487 4 -2531 10 -376 52 -666 246 -863 576 -59 99 -102 205 -141 344
l-26 95 0 2495 0 2495 24 95 c134 533 540 899 1051 949 144 14 4974 7 5045 -8z"/>
<path d="M2608 7700 c-43 -13 -94 -48 -114 -78 -52 -77 -49 96 -51 -2418 -1
-1282 1 -2350 4 -2374 8 -57 58 -129 110 -158 l42 -23 1435 1 c792 0 1446 4
1458 9 41 16 70 57 75 105 6 53 -11 86 -60 116 -31 20 -62 20 -1408 20 -1320
0 -1377 1 -1392 18 -16 17 -17 189 -17 2265 l0 2246 22 15 c20 14 240 16 2143
16 1816 0 2124 -2 2141 -14 19 -14 19 -41 24 -1231 l5 -1217 37 -34 c31 -28
46 -34 82 -34 49 0 87 24 105 67 8 21 11 356 9 1289 l-3 1261 -30 49 c-19 30
-49 60 -79 79 l-49 30 -2231 2 c-1227 1 -2243 -2 -2258 -7z"/>
<path d="M3133 6850 c-63 -38 -63 -38 -63 -472 0 -372 1 -395 20 -425 37 -61
47 -63 379 -63 l301 0 32 29 33 29 3 228 3 228 -58 -54 c-32 -30 -60 -57 -63
-60 -3 -3 -56 -54 -118 -114 -106 -102 -114 -108 -145 -102 -42 8 -247 210
-247 243 0 37 21 70 56 89 l34 18 64 -33 c51 -26 70 -31 90 -25 33 11 361 326
382 366 23 45 11 94 -29 118 -30 19 -52 20 -337 20 -285 0 -307 -1 -337 -20z"/>
<path d="M4205 6860 c-77 -31 -103 -142 -48 -202 45 -50 -1 -48 1138 -48 1162
0 1097 -3 1144 56 27 34 28 98 1 141 -40 67 32 63 -1147 62 -587 0 -1077 -4
-1088 -9z"/>
<path d="M4176 6140 c-51 -45 -62 -88 -38 -144 36 -81 -16 -76 839 -76 734 0
759 1 790 20 34 21 63 66 63 100 0 39 -29 89 -62 110 -32 20 -48 20 -795 20
l-762 0 -35 -30z"/>
<path d="M3325 5506 c-10 -7 -39 -65 -65 -127 l-46 -114 -96 -6 c-157 -9 -163
-29 -43 -149 l86 -86 -16 -105 c-26 -171 -13 -181 119 -94 l83 56 81 -56 c124
-85 136 -76 116 89 l-13 110 89 86 c50 47 90 93 90 102 0 31 -32 43 -129 48
l-96 5 -43 110 c-57 143 -74 163 -117 131z"/>
<path d="M4117 5508 c-9 -7 -38 -65 -64 -128 l-48 -115 -94 -7 c-150 -12 -154
-29 -37 -148 l84 -85 -14 -80 c-19 -105 -15 -169 9 -173 11 -2 57 21 104 53
l85 57 84 -56 c46 -31 93 -56 104 -56 17 0 20 7 20 49 0 27 -5 84 -11 126
l-10 77 85 88 c123 126 115 150 -49 150 l-84 0 -41 108 c-23 59 -48 117 -56
130 -16 25 -42 28 -67 10z"/>
<path d="M4884 5495 c-9 -14 -35 -71 -59 -128 l-42 -102 -98 -6 c-80 -5 -100
-9 -111 -24 -8 -10 -14 -23 -14 -28 0 -5 38 -48 84 -96 l84 -86 -14 -80 c-18
-102 -15 -169 8 -173 14 -3 81 37 173 103 10 6 37 -7 97 -48 86 -59 114 -68
125 -40 4 9 1 66 -5 127 l-12 111 86 86 c67 68 85 91 82 110 -4 29 -30 36
-138 38 l-75 1 -44 112 c-58 147 -91 179 -127 123z"/>
<path d="M5656 5499 c-8 -12 -33 -70 -57 -129 l-42 -107 -96 -7 c-113 -8 -131
-20 -103 -69 9 -16 35 -46 58 -66 23 -20 53 -50 68 -68 l27 -32 -17 -110 c-9
-60 -14 -117 -11 -125 11 -28 45 -17 124 39 42 31 83 53 90 51 7 -3 47 -28 88
-56 42 -28 84 -50 93 -48 22 4 27 66 13 172 l-11 80 85 87 c47 47 85 93 85
100 -1 37 -18 44 -122 49 l-102 5 -43 109 c-24 60 -50 118 -60 128 -22 24 -48
23 -67 -3z"/>
<path d="M6458 5510 c-9 -6 -38 -64 -64 -130 l-48 -120 -80 0 c-45 0 -92 -6
-106 -13 -45 -23 -37 -44 49 -131 l82 -82 -14 -120 c-7 -65 -12 -124 -9 -131
11 -33 33 -23 196 91 8 6 41 -10 98 -49 128 -85 140 -75 118 99 l-13 98 87 87
c84 85 103 119 74 138 -7 4 -57 10 -112 13 l-98 5 -43 108 c-55 141 -73 162
-117 137z"/>
<path d="M6752 4670 c-146 -19 -290 -63 -426 -133 -661 -337 -865 -1179 -440
-1819 63 -94 190 -226 288 -299 82 -61 238 -143 331 -174 242 -80 532 -79 789
2 231 73 459 238 612 443 253 340 319 768 179 1155 -41 115 -68 167 -142 280
-183 276 -459 460 -797 529 -95 20 -296 28 -394 16z m911 -653 c48 -37 74
-104 59 -155 -14 -46 48 26 -783 -913 -126 -143 -142 -157 -184 -168 -54 -13
-108 -3 -149 30 -31 24 -443 472 -469 509 -10 14 -17 43 -17 70 1 118 118 200
223 156 19 -7 89 -73 162 -150 72 -76 142 -144 157 -152 39 -20 80 -17 116 9
18 12 179 188 358 390 179 203 340 377 358 388 44 28 122 22 169 -14z"/>
</g>
</svg>
